PathFileType	4	(X/Y/Z)	 0.11m3min.trc
DataRate	CameraRate	NumFrames	NumMarkers	Units	OrigDataRate	OrigDataStartFrame	OrigNumFrames
200	200	8	43	m	200	876	1000
Frame#	Time	C7			LSH			RSH			MAN			RASI			LASI			HIPR			HIPL			RPSI			LPSI			COX			RTHI1			RTHI2			RTHI3			RTHI4			RLKN			RMKN			RSHA1			RSHA2			RSHA3			RSHA4			RLMAL			RMMAL			RHEEL			RMET5			RMET1			RTOE			LTHI1			LTHI2			LTHI3			LTHI4			LLKN			LMKN			LSHA1			LSHA2			LSHA3			LSHA4			LLMAL			LMMAL			LHEEL			LMET5			LMET1			LTOE			
		X1	Y1	Z1	X2	Y2	Z2	X3	Y3	Z3	X4	Y4	Z4	X5	Y5	Z5	X6	Y6	Z6	X7	Y7	Z7	X8	Y8	Z8	X9	Y9	Z9	X10	Y10	Z10	X11	Y11	Z11	X12	Y12	Z12	X13	Y13	Z13	X14	Y14	Z14	X15	Y15	Z15	X16	Y16	Z16	X17	Y17	Z17	X18	Y18	Z18	X19	Y19	Z19	X20	Y20	Z20	X21	Y21	Z21	X22	Y22	Z22	X23	Y23	Z23	X24	Y24	Z24	X25	Y25	Z25	X26	Y26	Z26	X27	Y27	Z27	X28	Y28	Z28	X29	Y29	Z29	X30	Y30	Z30	X31	Y31	Z31	X32	Y32	Z32	X33	Y33	Z33	X34	Y34	Z34	X35	Y35	Z35	X36	Y36	Z36	X37	Y37	Z37	X38	Y38	Z38	X39	Y39	Z39	X40	Y40	Z40	X41	Y41	Z41	X42	Y42	Z42	X43	Y43	Z43	
876	4.3800	-0.305638	1.486545	-0.516848	-0.306047	1.485748	-0.689836	-0.218323	1.480197	-0.348008	-0.178892	1.420963	-0.534963	-0.175393	1.001206	-0.422929	-0.199121	0.999048	-0.648748	-0.229967	1.047654	-0.386764	-0.262571	1.035018	-0.669864	-0.328730	1.039232	-0.463499	-0.339464	1.035412	-0.565154	-0.335320	1.040908	-0.511223	-0.250861	0.775959	-0.341432	-0.232234	0.719220	-0.338052	-0.170041	0.734955	-0.346650	-0.180898	0.795557	-0.351334	-0.199871	0.491022	-0.356263	-0.199263	0.475201	-0.453341	-0.316368	0.319083	-0.338972	-0.333767	0.280821	-0.348365	-0.275463	0.262343	-0.351366	-0.262567	0.300289	-0.346438	-0.347148	0.139956	-0.366881	-0.326959	0.151862	-0.442949	-0.395848	0.136737	-0.410707	-0.261507	0.035365	-0.350411	-0.221775	0.043921	-0.428500	-0.198143	0.036256	-0.422855	-0.296486	0.782007	-0.711779	-0.276332	0.724561	-0.721324	-0.213130	0.740558	-0.721528	-0.225759	0.798595	-0.713718	-0.251891	0.489869	-0.713397	-0.232829	0.476426	-0.617007	-0.373972	0.292896	-0.709176	-0.385759	0.255596	-0.698349	-0.326084	0.240168	-0.704681	-0.320918	0.282904	-0.714804	-0.382234	0.140764	-0.698368	-0.372511	0.148852	-0.620773	-0.439534	0.134119	-0.655798	-0.300813	0.040383	-0.706148	-0.265264	0.045548	-0.627704	-0.240427	0.037637	-0.635309	
877	4.3850	-0.306092	1.492462	-0.516950	-0.306257	1.492306	-0.689614	-0.219240	1.486931	-0.348326	-0.179345	1.427823	-0.534925	-0.174343	1.007118	-0.423088	-0.197836	1.005391	-0.648676	-0.228720	1.054199	-0.387108	-0.260903	1.042002	-0.669735	-0.327427	1.045822	-0.463606	-0.338083	1.042173	-0.565393	-0.334106	1.047480	-0.511366	-0.251407	0.782132	-0.341410	-0.233392	0.725189	-0.338066	-0.171078	0.740216	-0.346982	-0.181284	0.800940	-0.351671	-0.203472	0.496864	-0.356281	-0.202339	0.480698	-0.453484	-0.317184	0.323289	-0.339208	-0.333810	0.284658	-0.348451	-0.275154	0.267182	-0.350630	-0.262999	0.305330	-0.345860	-0.344613	0.143101	-0.366390	-0.323628	0.154945	-0.441944	-0.392554	0.140757	-0.410568	-0.260955	0.035905	-0.350582	-0.221450	0.044062	-0.428279	-0.198305	0.036302	-0.422391	-0.296289	0.788608	-0.711742	-0.276681	0.730950	-0.721026	-0.213327	0.746263	-0.720948	-0.225368	0.804452	-0.713372	-0.254850	0.495985	-0.712281	-0.235477	0.482545	-0.615780	-0.373745	0.297432	-0.708359	-0.384824	0.259841	-0.697950	-0.324999	0.245468	-0.705171	-0.320604	0.288363	-0.714766	-0.379430	0.144595	-0.698915	-0.368923	0.152257	-0.621679	-0.436029	0.138652	-0.655622	-0.300144	0.040912	-0.705882	-0.264790	0.045690	-0.627870	-0.240420	0.037703	-0.635534	
878	4.3900	-0.306549	1.498301	-0.517042	-0.306484	1.498771	-0.689372	-0.220225	1.493595	-0.348671	-0.179731	1.434612	-0.534854	-0.173270	1.012937	-0.423285	-0.196576	1.011664	-0.648629	-0.227449	1.060710	-0.387494	-0.259228	1.049034	-0.669618	-0.326113	1.052385	-0.463721	-0.336683	1.048911	-0.565633	-0.332859	1.054078	-0.511521	-0.252002	0.788265	-0.341372	-0.234611	0.731122	-0.338049	-0.172171	0.745439	-0.347255	-0.181717	0.806274	-0.351959	-0.207091	0.502723	-0.356283	-0.205310	0.486177	-0.453609	-0.317971	0.327491	-0.339589	-0.333772	0.288512	-0.348610	-0.274795	0.272107	-0.349869	-0.263395	0.310472	-0.345253	-0.341819	0.146299	-0.365845	-0.319915	0.158097	-0.440922	-0.388949	0.144931	-0.410517	-0.260362	0.036497	-0.350753	-0.221024	0.044273	-0.428015	-0.198420	0.036365	-0.421846	-0.296149	0.795169	-0.711694	-0.277099	0.737302	-0.720731	-0.213599	0.751933	-0.720432	-0.225058	0.810259	-0.713076	-0.257873	0.502094	-0.711160	-0.238048	0.488660	-0.614582	-0.373375	0.301948	-0.707509	-0.383712	0.264057	-0.697530	-0.323751	0.250787	-0.705702	-0.320174	0.293839	-0.714731	-0.376386	0.148395	-0.699482	-0.365057	0.155702	-0.622591	-0.432219	0.143269	-0.655349	-0.299459	0.041482	-0.705592	-0.264217	0.045920	-0.628043	-0.240338	0.037777	-0.635804	
879	4.3950	-0.307006	1.504030	-0.517121	-0.306733	1.505100	-0.689113	-0.221250	1.500125	-0.349015	-0.180025	1.441261	-0.534744	-0.172181	1.018633	-0.423517	-0.195349	1.017823	-0.648607	-0.226165	1.067147	-0.387910	-0.257603	1.056079	-0.669529	-0.324801	1.058867	-0.463845	-0.335278	1.055580	-0.565881	-0.331597	1.060651	-0.511688	-0.252636	0.794315	-0.341324	-0.235876	0.736976	-0.338010	-0.173316	0.750588	-0.347464	-0.182196	0.811522	-0.352191	-0.210727	0.508555	-0.356290	-0.208176	0.491596	-0.453722	-0.318746	0.331653	-0.340093	-0.333665	0.292350	-0.348856	-0.274408	0.277088	-0.349081	-0.263784	0.315682	-0.344645	-0.338788	0.149541	-0.365226	-0.315853	0.161326	-0.439862	-0.385054	0.149247	-0.410524	-0.259716	0.037166	-0.350906	-0.220462	0.044580	-0.427695	-0.198447	0.036444	-0.421219	-0.296065	0.801645	-0.711635	-0.277579	0.743574	-0.720435	-0.213941	0.757528	-0.719979	-0.224821	0.815984	-0.712834	-0.260939	0.508142	-0.710034	-0.240539	0.494710	-0.613410	-0.372856	0.306399	-0.706655	-0.382422	0.268210	-0.697113	-0.322356	0.256090	-0.706267	-0.319633	0.299295	-0.714712	-0.373111	0.152159	-0.700099	-0.360889	0.159187	-0.623534	-0.428126	0.147978	-0.655065	-0.298735	0.042126	-0.705284	-0.263507	0.046275	-0.628237	-0.240146	0.037858	-0.636110	
880	4.4000	-0.307471	1.509638	-0.517190	-0.307000	1.511248	-0.688845	-0.222304	1.506466	-0.349341	-0.180191	1.447724	-0.534581	-0.171086	1.024183	-0.423773	-0.194157	1.023834	-0.648607	-0.224871	1.073473	-0.388353	-0.256046	1.063096	-0.669467	-0.323510	1.065226	-0.463976	-0.333881	1.062130	-0.566170	-0.330331	1.067153	-0.511864	-0.253310	0.800250	-0.341270	-0.237174	0.742717	-0.337957	-0.174498	0.755626	-0.347610	-0.182713	0.816656	-0.352367	-0.214371	0.514313	-0.356316	-0.210945	0.496922	-0.453834	-0.319520	0.335755	-0.340687	-0.333500	0.296139	-0.349183	-0.273997	0.282086	-0.348272	-0.264180	0.320907	-0.344047	-0.335565	0.152839	-0.364476	-0.311508	0.164645	-0.438768	-0.380925	0.153654	-0.410523	-0.258987	0.037975	-0.351016	-0.219722	0.045031	-0.427305	-0.198339	0.036556	-0.420535	-0.296031	0.807994	-0.711562	-0.278112	0.749719	-0.720138	-0.214338	0.763015	-0.719586	-0.224653	0.821596	-0.712644	-0.264026	0.514090	-0.708897	-0.242962	0.500641	-0.612258	-0.372226	0.310737	-0.705809	-0.380978	0.272262	-0.696726	-0.320848	0.261328	-0.706850	-0.318999	0.304686	-0.714709	-0.369639	0.155896	-0.700779	-0.356452	0.162722	-0.624509	-0.423804	0.152766	-0.654837	-0.297941	0.042894	-0.704977	-0.262623	0.046798	-0.628466	-0.239811	0.037953	-0.636439	
881	4.4050	-0.307940	1.515102	-0.517253	-0.307278	1.517185	-0.688579	-0.223373	1.512581	-0.349639	-0.180317	1.453995	-0.534397	-0.169993	1.029569	-0.424044	-0.193001	1.029667	-0.648626	-0.223563	1.079653	-0.388808	-0.254561	1.070028	-0.669441	-0.322253	1.071431	-0.464115	-0.332506	1.068520	-0.566504	-0.329077	1.073534	-0.512050	-0.254009	0.806031	-0.341215	-0.238502	0.748318	-0.337892	-0.175708	0.760536	-0.347697	-0.183264	0.821650	-0.352486	-0.218007	0.519953	-0.356367	-0.213614	0.502126	-0.453966	-0.320277	0.339786	-0.341314	-0.333293	0.299862	-0.349567	-0.273579	0.287054	-0.347453	-0.264584	0.326095	-0.343470	-0.332216	0.156184	-0.363645	-0.307000	0.168068	-0.437649	-0.376661	0.158119	-0.410475	-0.258155	0.038984	-0.351060	-0.218765	0.045686	-0.426824	-0.198038	0.036727	-0.419822	-0.296038	0.814183	-0.711481	-0.278683	0.755705	-0.719840	-0.214781	0.768365	-0.719254	-0.224545	0.827056	-0.712499	-0.267107	0.519891	-0.707753	-0.245318	0.506401	-0.611124	-0.371502	0.314942	-0.705008	-0.379429	0.276179	-0.696380	-0.319248	0.266479	-0.707436	-0.318308	0.309962	-0.714702	-0.366021	0.159616	-0.701517	-0.351839	0.166288	-0.625490	-0.419334	0.157611	-0.654726	-0.297028	0.043859	-0.704697	-0.261530	0.047546	-0.628746	-0.239292	0.038075	-0.636774	
882	4.4100	-0.308412	1.520395	-0.517310	-0.307571	1.522883	-0.688320	-0.224453	1.518438	-0.349903	-0.180562	1.460056	-0.534251	-0.168915	1.034773	-0.424323	-0.191885	1.035295	-0.648659	-0.222255	1.085648	-0.389255	-0.253171	1.076826	-0.669444	-0.321046	1.077444	-0.464258	-0.331168	1.074718	-0.566882	-0.327851	1.079752	-0.512240	-0.254741	0.811621	-0.341165	-0.239845	0.753746	-0.337831	-0.176934	0.765295	-0.347731	-0.183842	0.826474	-0.352549	-0.221619	0.525421	-0.356465	-0.216183	0.507177	-0.454130	-0.321001	0.343742	-0.341929	-0.333048	0.303493	-0.349994	-0.273169	0.291938	-0.346650	-0.264998	0.331197	-0.342918	-0.328848	0.159596	-0.362721	-0.302475	0.171593	-0.436530	-0.372411	0.162612	-0.410350	-0.257211	0.040270	-0.351003	-0.217574	0.046585	-0.426234	-0.197488	0.036973	-0.419095	-0.296078	0.820165	-0.711394	-0.279277	0.761495	-0.719547	-0.215256	0.773539	-0.718978	-0.224490	0.832331	-0.712387	-0.270131	0.525503	-0.706605	-0.247607	0.511948	-0.610001	-0.370720	0.318988	-0.704264	-0.377825	0.279969	-0.696077	-0.317607	0.271504	-0.707997	-0.317593	0.315097	-0.714687	-0.362334	0.163345	-0.702280	-0.347195	0.169925	-0.626461	-0.414826	0.162489	-0.654781	-0.295948	0.045098	-0.704458	-0.260201	0.048568	-0.629090	-0.238553	0.038246	-0.637098	
883	4.4150	-0.308861	1.525453	-0.517353	-0.307878	1.528319	-0.688076	-0.225469	1.523989	-0.350103	-0.180943	1.465882	-0.534149	-0.167865	1.039778	-0.424600	-0.190813	1.040685	-0.648698	-0.220953	1.091422	-0.389671	-0.251883	1.083418	-0.669448	-0.319905	1.083237	-0.464405	-0.329885	1.080697	-0.567309	-0.326666	1.085765	-0.512433	-0.255491	0.817000	-0.341131	-0.241196	0.758969	-0.337795	-0.178169	0.769874	-0.347724	-0.184449	0.831114	-0.352555	-0.225158	0.530685	-0.356609	-0.218634	0.512049	-0.454335	-0.321678	0.347603	-0.342480	-0.332779	0.307029	-0.350450	-0.272785	0.296697	-0.345880	-0.265416	0.336151	-0.342409	-0.325595	0.163074	-0.361757	-0.298148	0.175206	-0.435414	-0.368324	0.167061	-0.410135	-0.256140	0.041912	-0.350809	-0.216147	0.047776	-0.425521	-0.196658	0.037329	-0.418332	-0.296145	0.825901	-0.711308	-0.279879	0.767052	-0.719269	-0.215750	0.778504	-0.718746	-0.224471	0.837395	-0.712319	-0.273038	0.530878	-0.705464	-0.249813	0.517244	-0.608886	-0.369903	0.322882	-0.703596	-0.376213	0.283633	-0.695812	-0.315975	0.276383	-0.708497	-0.316876	0.320053	-0.714647	-0.358659	0.167109	-0.703039	-0.342623	0.173650	-0.627410	-0.410421	0.167335	-0.655015	-0.294646	0.046683	-0.704266	-0.258626	0.049891	-0.629501	-0.237577	0.038488	-0.637412	
